<svg width="48" version="1.0" xmlns="http://www.w3.org/2000/svg" height="48" xmlns:xlink="http://www.w3.org/1999/xlink">
<defs>
<linearGradient id="linearGradient3850">
<stop offset="0"/>
<stop offset="1" style="stop-opacity:0"/>
</linearGradient>
<linearGradient gradientTransform="matrix(0.5,0,0,0.5,0,1)" xlink:href="#linearGradient3850" id="linearGradient3862" y1="44" x1="67" y2="16" gradientUnits="userSpaceOnUse" x2="67"/>
<linearGradient gradientTransform="matrix(0.5,0,0,0.5,0,0.5)" xlink:href="#linearGradient3850" id="linearGradient3859" y1="40" x1="80" y2="16" gradientUnits="userSpaceOnUse" x2="73.569221"/>
<linearGradient gradientTransform="matrix(0.5,0,0,0.5,0,19.5)" xlink:href="#linearGradient3850" id="linearGradient4280" y1="44" x1="67" y2="16" gradientUnits="userSpaceOnUse" x2="67"/>
<linearGradient gradientTransform="scale(0.5)" xlink:href="#linearGradient3850" id="linearGradient927" y1="71.0625" x1="41.004547" y2="65" x2="41.0312" gradientUnits="userSpaceOnUse"/>
<linearGradient gradientTransform="scale(0.5)" xlink:href="#linearGradient3850" id="linearGradient919" y1="34.030998" x1="41.03495" y2="27.9685" x2="41.0312" gradientUnits="userSpaceOnUse"/>
<linearGradient gradientTransform="matrix(0.5,0,0,0.5,0,19)" xlink:href="#linearGradient3850" id="linearGradient4282" y1="40" x1="80" y2="16" gradientUnits="userSpaceOnUse" x2="73.569221"/>
</defs>
<path style="fill:#a28444" d="m 6,3 h 36 c 1.662,0 3,1.338 3,3 V 45 H 3 V 6 C 3,4.338 4.338,3 6,3 Z"/>
<path style="opacity:.06;fill:url(#linearGradient3862)" d="m 7.85,6.9843 c -0.830375,0 -1.61583,0.68525 -1.61583,1.51562 v 12.9501 c 0,0.830375 0.78545,1.5655 1.61583,1.5655 h 32.3 c 0.830375,0 1.61543,-0.735125 1.61543,-1.5655 v -12.95 c 0,-0.830375 -0.78505,-1.51562 -1.61543,-1.51562 z "/>
<path style="opacity:.14;fill:url(#linearGradient3859)" d="m 8,6.4843 c -0.830375,0 -1.51562,0.68525 -1.51562,1.51562 v 13 c 0,0.830375 0.68525,1.51562 1.51562,1.51562 h 32 c 0.830375,0 1.51562,-0.68525 1.51562,-1.51562 v -13 c 0,-0.830375 -0.68525,-1.51562 -1.51562,-1.51562 Z "/>
<path style="opacity:.5;fill:#333" d="m 8,6.9843 c -0.550595,0 -1.01562,0.46503 -1.01562,1.01562 v 13 c 0,0.550595 0.46503,1.01562 1.01562,1.01562 h 32 c 0.550595,0 1.01562,-0.46503 1.01562,-1.01562 v -13 c 0,-0.550595 -0.46503,-1.01562 -1.01562,-1.01562 Z "/>
<path style="fill:#dfd0b1" d="m 8,7.5 h 32 c 0.277,0 0.5,0.223 0.5,0.5 v 13 c 0,0.277 -0.223,0.5 -0.5,0.5 H 8 C 7.723,21.5 7.5,21.277 7.5,21 V 8 C 7.5,7.723 7.723,7.5 8,7.5 Z"/>
<path style="opacity:.2;fill:url(#linearGradient919)" d="m 18.5,12.4842 c -0.55716,0 -1.01562,0.458467 -1.01562,1.01562 v 2.5 c 0,0.55716 0.458467,1.01562 1.01562,1.01562 h 11 c 0.55716,0 1.01562,-0.458467 1.01562,-1.01562 v -2.5 c 0,-0.55716 -0.458467,-1.01562 -1.01562,-1.01562 h -1 c -0.55716,0 -1.01562,0.458467 -1.01562,1.01562 v 0.484375 h -6.96878 v -0.484375 c 0,-0.55716 -0.458467,-1.01562 -1.01562,-1.01562 z "/>
<path style="opacity:.06;fill:url(#linearGradient4280)" d="m 7.85,25.4842 c -0.830375,0 -1.61584,0.68525 -1.61583,1.51562 l 0,12.9501 c 0,0.830375 0.78525,1.5655 1.61562,1.5655 l 32.3,0 c 0.830375,0 1.61564,-0.73525 1.61563,-1.56562 l 0,-12.9501 c 0,-0.830375 -0.78505,-1.5155 -1.61543,-1.5155 Z "/>
<path style="opacity:.14;fill:url(#linearGradient4282)" d="m 8,24.9842 c -0.830375,0 -1.51562,0.68525 -1.51562,1.51562 v 13 c 0,0.830375 0.68525,1.51562 1.51562,1.51562 h 32 c 0.830375,0 1.51562,-0.68525 1.51562,-1.51562 v -13 c 0,-0.830375 -0.68525,-1.51563 -1.51562,-1.51563 Z "/>
<path style="opacity:.5;fill:#333" d="m 8,25.4842 c -0.550595,0 -1.01562,0.46503 -1.01562,1.01562 v 13 c 0,0.550595 0.46503,1.01562 1.01562,1.01562 h 32 c 0.550595,0 1.01562,-0.46503 1.01562,-1.01562 v -13 c 0,-0.550595 -0.46503,-1.01563 -1.01562,-1.01563 Z "/>
<path style="fill:#dfd0b1" d="m 8,26 h 32 c 0.277,0 0.5,0.223 0.5,0.5 v 13 C 40.5,39.777 40.277,40 40,40 H 8 C 7.723,40 7.5,39.777 7.5,39.5 v -13 C 7.5,26.223 7.723,26 8,26 Z"/>
<path style="fill:#333" d="M 18.5,13 C 18.223,13 18,13.223001 18,13.5 V 16 c 0,0.277 0.223001,0.5 0.5,0.5 h 11 C 29.777,16.5 30,16.277 30,16 V 13.5 C 30,13.223 29.777,13 29.5,13 h -1 C 28.223,13 28,13.223001 28,13.5 v 0.55 c 0,0.295493 -0.278574,0.45 -0.5,0.45 h -7 C 20.255698,14.5 20,14.288438 20,14.05 V 13.5 C 20,13.223 19.777,13 19.5,13 Z"/>
<path style="opacity:.2;fill:url(#linearGradient927)" d="m 18.5,31 c -0.55716,0 -1.015625,0.458467 -1.015625,1.015625 v 2.5 c 0,0.55716 0.458467,1.015625 1.015625,1.015625 h 11 c 0.55716,0 1.015625,-0.458467 1.015625,-1.015625 v -2.5 C 30.515625,31.458465 30.057158,31 29.5,31 h -1 c -0.55716,0 -1.015625,0.458467 -1.015625,1.015625 V 32.5 H 20.5156 V 32.015625 C 20.5156,31.458465 20.057133,31 19.5,31 Z"/>
<path style="fill:#333" d="m 18.5,31.5158 c -0.277,0 -0.5,0.223001 -0.5,0.5 v 2.5 c 0,0.277 0.223001,0.5 0.5,0.5 h 11 c 0.277,0 0.5,-0.223001 0.5,-0.5 v -2.5 c 0,-0.277 -0.223001,-0.5 -0.5,-0.5 h -1 c -0.277,0 -0.5,0.223 -0.5,0.5 v 0.55 c 0,0.295493 -0.278574,0.45 -0.5,0.45 h -7 c -0.244302,0 -0.5,-0.211562 -0.5,-0.45 v -0.55 c 0,-0.277 -0.223001,-0.5 -0.5,-0.5 z "/>
</svg>
