<svg width="48" version="1.0" xmlns="http://www.w3.org/2000/svg" height="48" xmlns:xlink="http://www.w3.org/1999/xlink">
<defs>
<linearGradient id="linearGradient3850">
<stop offset="0"/>
<stop offset="1" style="stop-opacity:0"/>
</linearGradient>
<linearGradient id="linearGradient23">
<stop offset="0" style="stop-color:#967b3f"/>
<stop offset="1" style="stop-color:#b3924c"/>
</linearGradient>
<linearGradient id="linearGradient16">
<stop offset="0" style="stop-color:#fff"/>
<stop offset="1" style="stop-color:#fff;stop-opacity:0"/>
</linearGradient>
<linearGradient gradientTransform="matrix(0.5,0,0,0.5,-0.0122,1.1446)" xlink:href="#linearGradient3850" id="linearGradient20" y1="40" x1="80" y2="16" gradientUnits="userSpaceOnUse" x2="73.569221"/>
<linearGradient gradientTransform="matrix(0.5,0,0,0.5,-0.0122,1.39435)" xlink:href="#linearGradient3850" id="linearGradient3862" y1="44" x1="67" y2="16" gradientUnits="userSpaceOnUse" x2="67"/>
<linearGradient xlink:href="#linearGradient23" id="linearGradient27" y1="45" x1="3" y2="3" x2="3" gradientUnits="userSpaceOnUse"/>
<linearGradient gradientTransform="matrix(0.5,0,0,0.5,-0.0122,19.09435)" xlink:href="#linearGradient3850" id="linearGradient4282" y1="40" x1="80" y2="16" gradientUnits="userSpaceOnUse" x2="73.569221"/>
<linearGradient gradientTransform="matrix(0.5,0,0,0.5,-0.0122,0.39435)" xlink:href="#linearGradient16" id="linearGradient17" y1="15" x1="16" y2="46.030998" x2="29.755302" gradientUnits="userSpaceOnUse"/>
<linearGradient gradientTransform="matrix(0.5,0,0,0.5,-0.0122,0.89435)" xlink:href="#linearGradient3850" id="linearGradient3859" y1="40" x1="80" y2="16" gradientUnits="userSpaceOnUse" x2="73.569221"/>
<linearGradient gradientTransform="matrix(0.5,0,0,0.5,-0.0122,18.59435)" xlink:href="#linearGradient16" id="linearGradient18" y1="15" x1="16" y2="46.030998" gradientUnits="userSpaceOnUse" x2="29.755302"/>
<linearGradient gradientTransform="translate(0,0.3)" xlink:href="#linearGradient3850" id="linearGradient26" y1="17.10984" x1="20.904131" y2="14.078595" x2="20.503401" gradientUnits="userSpaceOnUse"/>
<linearGradient gradientTransform="matrix(0.5,0,0,0.5,-0.0122,0.6446)" xlink:href="#linearGradient3850" id="linearGradient19" y1="40" x1="80" y2="16" gradientUnits="userSpaceOnUse" x2="73.569221"/>
<linearGradient gradientTransform="matrix(0.5,0,0,0.5,-0.0122,19.59435)" xlink:href="#linearGradient3850" id="linearGradient4280" y1="44" x1="67" y2="16" gradientUnits="userSpaceOnUse" x2="67"/>
<linearGradient gradientTransform="matrix(0.5,0,0,0.5,-0.0122,18.8441)" xlink:href="#linearGradient3850" id="linearGradient21" y1="40" x1="80" y2="16" gradientUnits="userSpaceOnUse" x2="73.569221"/>
<linearGradient gradientTransform="matrix(0.5,0,0,0.5,-0.0122,19.3441)" xlink:href="#linearGradient3850" id="linearGradient22" y1="40" x1="80" y2="16" gradientUnits="userSpaceOnUse" x2="73.569221"/>
<linearGradient xlink:href="#linearGradient3850" id="linearGradient28" y1="35.625542" x1="20.9" y2="32.594296" x2="20.503401" gradientUnits="userSpaceOnUse"/>
</defs>
<path style="fill:url(#linearGradient27)" d="m 7,3 h 34 c 2.216,0 4,1.784 4,4 V 45 H 3 V 7 C 3,4.784 4.784,3 7,3 Z"/>
<path style="opacity:.07;fill:url(#linearGradient3862)" d="m 8.0877,7.3786 c -0.830375,0 -1.51562,0.68525 -1.51562,1.51562 v 13.3998 c 0,0.830375 0.68525,1.51562 1.51562,1.51562 H 40.288 c 0.830375,0 1.51562,-0.68525 1.51562,-1.51562 V 8.89422 c 0,-0.830375 -0.68525,-1.51562 -1.51562,-1.51562 z"/>
<path style="opacity:.1;fill:url(#linearGradient20)" d="m 8.0877,7.1289 c -0.830375,0 -1.51562,0.68525 -1.51562,1.51562 v 13.2001 c 0,0.830375 0.68525,1.51562 1.51562,1.51562 h 32 c 0.830374,0 1.51562,-0.68525 1.51562,-1.51562 V 8.64452 c 0,-0.830375 -0.685251,-1.51562 -1.51562,-1.51562 z"/>
<path style="opacity:.15;fill:url(#linearGradient3859)" d="m 8.1875,6.8786 c -0.830375,0 -1.51563,0.68525 -1.51563,1.51562 v 13.0998 c 0,0.830375 0.68525,1.51562 1.51563,1.51562 h 31.8003 c 0.830375,0 1.41581,-0.68525 1.41581,-1.51562 V 8.39422 c 0,-0.830375 -0.68525,-1.51562 -1.51562,-1.51562 z"/>
<path style="opacity:.2;fill:url(#linearGradient19)" d="m 8.3375,6.6289 c -0.830375,0 -1.51562,0.68525 -1.51562,1.51562 v 13.1 c 0,0.830375 0.53544,1.41575 1.36581,1.41575 h 31.8001 c 0.830375,0 1.26581,-0.635375 1.26581,-1.46575 V 8.14462 C 41.2536,7.314245 40.56835,6.629 39.73798,6.629 Z"/>
<path style="opacity:.5;fill:#333" d="m 7.9878,7.3786 c -0.550595,0 -1.01562,0.46503 -1.01562,1.01562 v 13 c 0,0.550595 0.46503,1.01562 1.01562,1.01562 h 32 c 0.550595,0 1.01562,-0.46503 1.01562,-1.01562 v -13 c 0,-0.550595 -0.46503,-1.01563 -1.01562,-1.01563 z"/>
<path style="fill:#dfd0b1" d="m 7.9878,7.8944 h 32 c 0.277,0 0.5,0.223 0.5,0.5 v 13 c 0,0.277 -0.223,0.5 -0.5,0.5 h -32 c -0.277,0 -0.5,-0.223 -0.5,-0.5 v -13 c 0,-0.277 0.223,-0.5 0.5,-0.5 z"/>
<path style="opacity:.9;fill:url(#linearGradient17)" d="m 7.9878,7.8944 h 32 c 0.277,0 0.501015,0.223046 0.5,0.5 -14.269,3.57705 -20.5,6.05 -32.5,13.5 -0.276832,0 -0.5,-0.223 -0.5,-0.5 v -13 c 0,-0.277 0.223,-0.5 0.5,-0.5 z"/>
<path style="opacity:.25;fill:url(#linearGradient26)" d="m 18.4878,12.8786 c -0.55716,0 -1.01562,0.458467 -1.01562,1.01562 v 2.5 c 0,0.55716 0.458467,1.01562 1.01562,1.01562 h 11 c 0.55716,0 1.01562,-0.458467 1.01562,-1.01562 v -2.5 c 0,-0.55716 -0.458467,-1.01562 -1.01562,-1.01562 h -1 c -0.55716,0 -1.01562,0.458467 -1.01562,1.01562 v 0.484375 H 20.5034 V 13.89422 c 0,-0.55716 -0.458467,-1.01562 -1.01562,-1.01562 z"/>
<path style="opacity:.07;fill:url(#linearGradient4280)" d="m 8.0877,25.5786 c -0.830375,0 -1.51562,0.68525 -1.51562,1.51562 v 13.3998 c 0,0.830375 0.68525,1.51562 1.51562,1.51562 H 40.288 c 0.830375,0 1.51562,-0.68525 1.51562,-1.51562 v -13.3998 c 0,-0.830375 -0.68525,-1.51562 -1.51562,-1.51562 z"/>
<path style="opacity:.1;fill:url(#linearGradient22)" d="m 8.0877,25.3284 c -0.830375,0 -1.51562,0.68525 -1.51562,1.51562 v 13.2001 c 0,0.830374 0.68525,1.51562 1.51562,1.51562 h 32 c 0.830374,0 1.51562,-0.685251 1.51562,-1.51562 v -13.2001 c 0,-0.830375 -0.685251,-1.51562 -1.51562,-1.51562 z"/>
<path style="opacity:.15;fill:url(#linearGradient4282)" d="m 8.1875,25.0786 c -0.830375,0 -1.51562,0.68525 -1.51562,1.51562 v 13.0998 c 0,0.830375 0.68525,1.51562 1.51562,1.51562 h 31.8003 c 0.830375,0 1.41581,-0.68525 1.41581,-1.51562 v -13.0998 c 0,-0.830375 -0.68525,-1.51562 -1.51562,-1.51562 z"/>
<path style="opacity:.2;fill:url(#linearGradient21)" d="m 8.3375,24.8284 c -0.830375,0 -1.51562,0.68525 -1.51562,1.51562 v 13.1 c 0,0.830375 0.53544,1.41575 1.36581,1.41575 h 31.8001 c 0.830375,0 1.26581,-0.635375 1.26581,-1.46575 v -13.0499 c 0,-0.830375 -0.68525,-1.51562 -1.51562,-1.51562 z"/>
<path style="opacity:.5;fill:#333" d="m 7.9878,25.5786 c -0.550595,0 -1.01562,0.46503 -1.01562,1.01562 v 13 c 0,0.550595 0.46503,1.01562 1.01562,1.01562 h 32 c 0.550595,0 1.01562,-0.46503 1.01562,-1.01562 v -13 c 0,-0.550595 -0.46503,-1.01562 -1.01562,-1.01562 z"/>
<path style="fill:#dfd0b1" d="m 7.9878,26.0943 h 32 c 0.277,0 0.5,0.223 0.5,0.5 v 13 c 0,0.277 -0.223,0.5 -0.5,0.5 h -32 c -0.277,0 -0.5,-0.223 -0.5,-0.5 v -13 c 0,-0.277 0.223,-0.5 0.5,-0.5 z"/>
<path style="fill:#333" d="m 18.4878,13.3944 c -0.277,0 -0.5,0.223001 -0.5,0.5 v 2.5 c 0,0.277 0.223001,0.5 0.5,0.5 h 11 c 0.277,0 0.5,-0.223001 0.5,-0.5 v -2.5 c 0,-0.277 -0.223001,-0.5 -0.5,-0.5 h -1 c -0.277,0 -0.5,0.223001 -0.5,0.5 v 0.55 c 0,0.295493 -0.278574,0.45 -0.5,0.45 h -7 c -0.244302,0 -0.5,-0.211562 -0.5,-0.45 v -0.55 c 0,-0.277 -0.223001,-0.5 -0.5,-0.5 z"/>
<path style="opacity:.9;fill:url(#linearGradient18)" d="m 7.9878,26.0943 h 32 c 0.277,0 0.497434,0.226724 0.5,0.5 -14.269,3.57706 -20.5,6.05 -32.5,13.5 -0.274932,0 -0.5,-0.223 -0.5,-0.5 v -13 c 0,-0.277 0.223,-0.5 0.5,-0.5 z"/>
<path style="opacity:.25;fill:url(#linearGradient28)" d="m 18.4878,31.0943 c -0.55716,0 -1.01562,0.458467 -1.01562,1.01562 v 2.5 c 0,0.55716 0.458467,1.01562 1.01562,1.01562 h 11 c 0.55716,0 1.01562,-0.458467 1.01562,-1.01562 v -2.5 c 0,-0.55716 -0.458467,-1.01562 -1.01562,-1.01562 h -1 c -0.55716,0 -1.01562,0.458467 -1.01562,1.01562 v 0.484375 H 20.5034 V 32.10992 c 0,-0.55716 -0.458467,-1.01562 -1.0156,-1.01562 z"/>
<path style="fill:#333" d="m 18.4878,31.6101 c -0.277,0 -0.5,0.223 -0.5,0.5 v 2.5 c 0,0.277 0.223001,0.5 0.5,0.5 h 11 c 0.277,0 0.5,-0.223001 0.5,-0.5 v -2.5 c 0,-0.277 -0.223001,-0.5 -0.5,-0.5 h -1 c -0.277,0 -0.5,0.223 -0.5,0.5 v 0.55 c 0,0.295493 -0.278574,0.45 -0.5,0.45 h -7 c -0.244302,0 -0.5,-0.211562 -0.5,-0.45 v -0.55 c 0,-0.277 -0.223001,-0.5 -0.5,-0.5 z"/>
</svg>
